<mxfile host="app.diagrams.net" modified="2022-11-21T02:17:21.416Z" agent="5.0 (Windows NT 10.0; Win64; x64) AppleWebKit/537.36 (KHTML, like Gecko) Chrome/107.0.0.0 Safari/537.36" etag="AwauMZX1mU9HcSRqTTV9" version="20.5.3" type="github">
  <diagram id="ZpApoomjjT1UuwrIiSDe" name="Page-1">
    <mxGraphModel dx="1422" dy="786" grid="1" gridSize="10" guides="1" tooltips="1" connect="1" arrows="1" fold="1" page="1" pageScale="1" pageWidth="827" pageHeight="1169" math="0" shadow="0">
      <root>
        <mxCell id="0" />
        <mxCell id="1" parent="0" />
        <mxCell id="3NFry7N0KiINuGVEOu8F-45" style="edgeStyle=orthogonalEdgeStyle;rounded=0;orthogonalLoop=1;jettySize=auto;html=1;entryX=0;entryY=0.5;entryDx=0;entryDy=0;" parent="1" target="3NFry7N0KiINuGVEOu8F-51" edge="1">
          <mxGeometry relative="1" as="geometry">
            <mxPoint x="150" y="95" as="targetPoint" />
            <mxPoint x="70" y="95" as="sourcePoint" />
          </mxGeometry>
        </mxCell>
        <mxCell id="3NFry7N0KiINuGVEOu8F-46" value="Passageiro" style="shape=umlActor;verticalLabelPosition=bottom;verticalAlign=top;html=1;outlineConnect=0;" parent="1" vertex="1">
          <mxGeometry x="40" y="65" width="30" height="60" as="geometry" />
        </mxCell>
        <mxCell id="3NFry7N0KiINuGVEOu8F-47" style="edgeStyle=orthogonalEdgeStyle;shape=connector;rounded=0;orthogonalLoop=1;jettySize=auto;html=1;entryX=1;entryY=0.5;entryDx=0;entryDy=0;labelBackgroundColor=default;strokeColor=default;fontFamily=Helvetica;fontSize=11;fontColor=default;endArrow=classic;" parent="1" source="3NFry7N0KiINuGVEOu8F-50" target="3NFry7N0KiINuGVEOu8F-52" edge="1">
          <mxGeometry relative="1" as="geometry" />
        </mxCell>
        <mxCell id="3NFry7N0KiINuGVEOu8F-48" style="edgeStyle=orthogonalEdgeStyle;shape=connector;rounded=0;orthogonalLoop=1;jettySize=auto;html=1;entryX=1;entryY=0.5;entryDx=0;entryDy=0;labelBackgroundColor=default;strokeColor=default;fontFamily=Helvetica;fontSize=11;fontColor=default;endArrow=classic;" parent="1" source="3NFry7N0KiINuGVEOu8F-50" target="3NFry7N0KiINuGVEOu8F-57" edge="1">
          <mxGeometry relative="1" as="geometry" />
        </mxCell>
        <mxCell id="3NFry7N0KiINuGVEOu8F-80" style="edgeStyle=orthogonalEdgeStyle;rounded=0;orthogonalLoop=1;jettySize=auto;html=1;entryX=1;entryY=0.5;entryDx=0;entryDy=0;" parent="1" source="3NFry7N0KiINuGVEOu8F-50" target="3NFry7N0KiINuGVEOu8F-78" edge="1">
          <mxGeometry relative="1" as="geometry" />
        </mxCell>
        <mxCell id="A-DYkajNM82MFQQdqRqF-1" style="edgeStyle=orthogonalEdgeStyle;rounded=0;orthogonalLoop=1;jettySize=auto;html=1;entryX=0.75;entryY=0;entryDx=0;entryDy=0;entryPerimeter=0;" edge="1" parent="1" source="3NFry7N0KiINuGVEOu8F-50" target="3NFry7N0KiINuGVEOu8F-75">
          <mxGeometry relative="1" as="geometry">
            <Array as="points">
              <mxPoint x="980" y="160" />
              <mxPoint x="980" y="220" />
              <mxPoint x="880" y="220" />
            </Array>
          </mxGeometry>
        </mxCell>
        <mxCell id="3NFry7N0KiINuGVEOu8F-50" value="Master" style="shape=umlActor;verticalLabelPosition=bottom;verticalAlign=top;html=1;outlineConnect=0;" parent="1" vertex="1">
          <mxGeometry x="1060" y="130" width="30" height="60" as="geometry" />
        </mxCell>
        <mxCell id="3NFry7N0KiINuGVEOu8F-51" value="Seleciona andar" style="ellipse;whiteSpace=wrap;html=1;" parent="1" vertex="1">
          <mxGeometry x="150" y="70" width="120" height="50" as="geometry" />
        </mxCell>
        <mxCell id="3NFry7N0KiINuGVEOu8F-52" value="Gerencia autorizações" style="ellipse;whiteSpace=wrap;html=1;" parent="1" vertex="1">
          <mxGeometry x="780" y="40" width="120" height="50" as="geometry" />
        </mxCell>
        <mxCell id="3NFry7N0KiINuGVEOu8F-53" value="Grava log" style="ellipse;whiteSpace=wrap;html=1;" parent="1" vertex="1">
          <mxGeometry x="540" y="260" width="120" height="50" as="geometry" />
        </mxCell>
        <mxCell id="3NFry7N0KiINuGVEOu8F-54" style="edgeStyle=orthogonalEdgeStyle;rounded=0;orthogonalLoop=1;jettySize=auto;html=1;entryX=1;entryY=0.5;entryDx=0;entryDy=0;" parent="1" source="3NFry7N0KiINuGVEOu8F-56" target="3NFry7N0KiINuGVEOu8F-67" edge="1">
          <mxGeometry relative="1" as="geometry" />
        </mxCell>
        <mxCell id="3NFry7N0KiINuGVEOu8F-55" style="edgeStyle=orthogonalEdgeStyle;rounded=0;orthogonalLoop=1;jettySize=auto;html=1;entryX=0.775;entryY=0.96;entryDx=0;entryDy=0;entryPerimeter=0;" parent="1" source="3NFry7N0KiINuGVEOu8F-56" target="3NFry7N0KiINuGVEOu8F-75" edge="1">
          <mxGeometry relative="1" as="geometry">
            <Array as="points">
              <mxPoint x="980" y="470" />
              <mxPoint x="980" y="340" />
              <mxPoint x="883" y="340" />
            </Array>
          </mxGeometry>
        </mxCell>
        <mxCell id="3NFry7N0KiINuGVEOu8F-56" value="Controlador" style="shape=umlActor;verticalLabelPosition=bottom;verticalAlign=top;html=1;outlineConnect=0;" parent="1" vertex="1">
          <mxGeometry x="1080" y="440" width="30" height="60" as="geometry" />
        </mxCell>
        <mxCell id="3NFry7N0KiINuGVEOu8F-57" value="Cadastrar usuários" style="ellipse;whiteSpace=wrap;html=1;" parent="1" vertex="1">
          <mxGeometry x="780" y="100" width="120" height="50" as="geometry" />
        </mxCell>
        <mxCell id="3NFry7N0KiINuGVEOu8F-60" value="&amp;lt;&amp;lt;includes&amp;gt;&amp;gt;" style="edgeStyle=orthogonalEdgeStyle;rounded=0;orthogonalLoop=1;jettySize=auto;html=1;dashed=1;exitX=0;exitY=0.5;exitDx=0;exitDy=0;entryX=0.5;entryY=0;entryDx=0;entryDy=0;" parent="1" source="3NFry7N0KiINuGVEOu8F-52" target="3NFry7N0KiINuGVEOu8F-53" edge="1">
          <mxGeometry x="-0.5821" relative="1" as="geometry">
            <mxPoint x="829.5" y="-230" as="sourcePoint" />
            <mxPoint x="590" y="190" as="targetPoint" />
            <mxPoint as="offset" />
          </mxGeometry>
        </mxCell>
        <mxCell id="3NFry7N0KiINuGVEOu8F-61" value="&amp;lt;&amp;lt;includes&amp;gt;&amp;gt;" style="edgeStyle=orthogonalEdgeStyle;rounded=0;orthogonalLoop=1;jettySize=auto;html=1;dashed=1;exitX=0;exitY=0.4;exitDx=0;exitDy=0;entryX=0.5;entryY=0;entryDx=0;entryDy=0;exitPerimeter=0;" parent="1" source="3NFry7N0KiINuGVEOu8F-57" target="3NFry7N0KiINuGVEOu8F-53" edge="1">
          <mxGeometry x="-0.4815" relative="1" as="geometry">
            <mxPoint x="760" y="-135" as="sourcePoint" />
            <mxPoint x="590" y="190" as="targetPoint" />
            <mxPoint as="offset" />
          </mxGeometry>
        </mxCell>
        <mxCell id="3NFry7N0KiINuGVEOu8F-62" style="edgeStyle=orthogonalEdgeStyle;rounded=0;orthogonalLoop=1;jettySize=auto;html=1;entryX=0;entryY=0.5;entryDx=0;entryDy=0;" parent="1" source="3NFry7N0KiINuGVEOu8F-66" target="3NFry7N0KiINuGVEOu8F-69" edge="1">
          <mxGeometry relative="1" as="geometry" />
        </mxCell>
        <mxCell id="3NFry7N0KiINuGVEOu8F-63" style="edgeStyle=orthogonalEdgeStyle;rounded=0;orthogonalLoop=1;jettySize=auto;html=1;entryX=0;entryY=0.5;entryDx=0;entryDy=0;" parent="1" source="3NFry7N0KiINuGVEOu8F-66" target="3NFry7N0KiINuGVEOu8F-70" edge="1">
          <mxGeometry relative="1" as="geometry">
            <Array as="points">
              <mxPoint x="110" y="305" />
              <mxPoint x="110" y="395" />
            </Array>
          </mxGeometry>
        </mxCell>
        <mxCell id="3NFry7N0KiINuGVEOu8F-64" style="edgeStyle=orthogonalEdgeStyle;rounded=0;orthogonalLoop=1;jettySize=auto;html=1;entryX=0;entryY=0.5;entryDx=0;entryDy=0;" parent="1" source="3NFry7N0KiINuGVEOu8F-66" target="3NFry7N0KiINuGVEOu8F-68" edge="1">
          <mxGeometry relative="1" as="geometry" />
        </mxCell>
        <mxCell id="3NFry7N0KiINuGVEOu8F-65" style="edgeStyle=orthogonalEdgeStyle;rounded=0;orthogonalLoop=1;jettySize=auto;html=1;entryX=0;entryY=0.5;entryDx=0;entryDy=0;" parent="1" source="3NFry7N0KiINuGVEOu8F-66" target="3NFry7N0KiINuGVEOu8F-77" edge="1">
          <mxGeometry relative="1" as="geometry" />
        </mxCell>
        <mxCell id="3NFry7N0KiINuGVEOu8F-66" value="Periféricos" style="shape=umlActor;verticalLabelPosition=bottom;verticalAlign=top;html=1;outlineConnect=0;" parent="1" vertex="1">
          <mxGeometry x="40" y="275" width="30" height="60" as="geometry" />
        </mxCell>
        <mxCell id="3NFry7N0KiINuGVEOu8F-67" value="Configura Hotel" style="ellipse;whiteSpace=wrap;html=1;" parent="1" vertex="1">
          <mxGeometry x="770" y="445" width="120" height="50" as="geometry" />
        </mxCell>
        <mxCell id="3NFry7N0KiINuGVEOu8F-68" value="Verifica carga maxima" style="ellipse;whiteSpace=wrap;html=1;" parent="1" vertex="1">
          <mxGeometry x="150" y="185" width="120" height="50" as="geometry" />
        </mxCell>
        <mxCell id="3NFry7N0KiINuGVEOu8F-69" value="Verifica incendio" style="ellipse;whiteSpace=wrap;html=1;" parent="1" vertex="1">
          <mxGeometry x="150" y="280" width="120" height="50" as="geometry" />
        </mxCell>
        <mxCell id="3NFry7N0KiINuGVEOu8F-70" value="Verifica emergencia" style="ellipse;whiteSpace=wrap;html=1;" parent="1" vertex="1">
          <mxGeometry x="150" y="370" width="120" height="50" as="geometry" />
        </mxCell>
        <mxCell id="3NFry7N0KiINuGVEOu8F-72" value="&amp;lt;&amp;lt;includes&amp;gt;&amp;gt;" style="edgeStyle=orthogonalEdgeStyle;rounded=0;orthogonalLoop=1;jettySize=auto;html=1;dashed=1;exitX=0;exitY=0.5;exitDx=0;exitDy=0;entryX=0.5;entryY=1;entryDx=0;entryDy=0;" parent="1" source="3NFry7N0KiINuGVEOu8F-67" target="3NFry7N0KiINuGVEOu8F-53" edge="1">
          <mxGeometry x="-0.1874" relative="1" as="geometry">
            <mxPoint x="740" y="525" as="sourcePoint" />
            <mxPoint x="670" y="475" as="targetPoint" />
            <Array as="points">
              <mxPoint x="770" y="475" />
              <mxPoint x="600" y="475" />
            </Array>
            <mxPoint x="-1" as="offset" />
          </mxGeometry>
        </mxCell>
        <mxCell id="3NFry7N0KiINuGVEOu8F-75" value="Acessar sistema" style="ellipse;whiteSpace=wrap;html=1;" parent="1" vertex="1">
          <mxGeometry x="790" y="250" width="120" height="50" as="geometry" />
        </mxCell>
        <mxCell id="3NFry7N0KiINuGVEOu8F-76" value="&amp;lt;&amp;lt;includes&amp;gt;&amp;gt;" style="edgeStyle=orthogonalEdgeStyle;rounded=0;orthogonalLoop=1;jettySize=auto;html=1;dashed=1;exitX=0;exitY=0.5;exitDx=0;exitDy=0;entryX=1;entryY=0.5;entryDx=0;entryDy=0;" parent="1" source="3NFry7N0KiINuGVEOu8F-75" target="3NFry7N0KiINuGVEOu8F-53" edge="1">
          <mxGeometry x="0.1538" relative="1" as="geometry">
            <mxPoint x="780" y="480" as="sourcePoint" />
            <mxPoint x="610" y="500" as="targetPoint" />
            <Array as="points">
              <mxPoint x="770" y="275" />
              <mxPoint x="770" y="285" />
            </Array>
            <mxPoint as="offset" />
          </mxGeometry>
        </mxCell>
        <mxCell id="3NFry7N0KiINuGVEOu8F-77" value="Verifica camera interna" style="ellipse;whiteSpace=wrap;html=1;" parent="1" vertex="1">
          <mxGeometry x="150" y="460" width="120" height="50" as="geometry" />
        </mxCell>
        <mxCell id="3NFry7N0KiINuGVEOu8F-78" value="Deletar usuários" style="ellipse;whiteSpace=wrap;html=1;" parent="1" vertex="1">
          <mxGeometry x="780" y="160" width="120" height="50" as="geometry" />
        </mxCell>
        <mxCell id="3NFry7N0KiINuGVEOu8F-79" value="&amp;lt;&amp;lt;includes&amp;gt;&amp;gt;" style="edgeStyle=orthogonalEdgeStyle;rounded=0;orthogonalLoop=1;jettySize=auto;html=1;dashed=1;exitX=0;exitY=0.5;exitDx=0;exitDy=0;entryX=0.5;entryY=0;entryDx=0;entryDy=0;" parent="1" source="3NFry7N0KiINuGVEOu8F-78" target="3NFry7N0KiINuGVEOu8F-53" edge="1">
          <mxGeometry x="-0.2304" relative="1" as="geometry">
            <mxPoint x="769.9999999999995" y="180" as="sourcePoint" />
            <mxPoint x="590" y="190" as="targetPoint" />
            <mxPoint as="offset" />
          </mxGeometry>
        </mxCell>
      </root>
    </mxGraphModel>
  </diagram>
</mxfile>
